<svg data-v-423bf9ae="" xmlns="http://www.w3.org/2000/svg" viewBox="0 0 216.87828408698536 185" class="iconAboveSlogan"><!----><!----><!----><g data-v-423bf9ae="" id="cce8e9fc-ea7c-4357-8c59-0473174c88e7" fill="white" transform="matrix(4.480956141520432,0,0,4.480956141520432,-3.002244380224454,91.2586353582962)"><path d="M3.92 13.71Q3.09 13.71 2.15 13.48Q1.20 13.26 0.67 12.99L0.67 12.99L0.88 11.09Q2.73 11.98 4.13 11.98L4.13 11.98Q4.87 11.98 5.29 11.70Q5.71 11.41 5.71 10.85L5.71 10.85Q5.71 10.43 5.48 10.16Q5.25 9.88 4.82 9.70Q4.38 9.51 3.43 9.17L3.43 9.17Q2.53 8.86 1.95 8.52Q1.36 8.18 1.02 7.64Q0.67 7.10 0.67 6.31L0.67 6.31Q0.67 5.05 1.60 4.28Q2.52 3.51 4.24 3.51L4.24 3.51Q5.05 3.51 5.86 3.70Q6.66 3.88 7.34 4.14L7.34 4.14L7.15 5.98Q6.29 5.60 5.57 5.41Q4.84 5.22 4.13 5.22L4.13 5.22Q3.33 5.22 2.91 5.49Q2.49 5.75 2.49 6.26L2.49 6.26Q2.49 6.65 2.72 6.90Q2.94 7.15 3.33 7.32Q3.71 7.49 4.47 7.73L4.47 7.73Q6.16 8.26 6.94 8.95Q7.71 9.65 7.71 10.85L7.71 10.85Q7.71 12.00 6.92 12.85Q6.12 13.71 3.92 13.71L3.92 13.71ZM12.18 13.65Q11.02 13.65 10.19 13.17Q9.35 12.68 8.93 11.86Q8.51 11.03 8.51 10.02L8.51 10.02Q8.51 9.00 8.93 8.17Q9.35 7.34 10.19 6.85Q11.03 6.37 12.24 6.37L12.24 6.37Q13.31 6.37 14.11 6.82L14.11 6.82L13.97 8.22Q13.22 7.83 12.40 7.83L12.40 7.83Q11.41 7.83 10.85 8.43Q10.29 9.03 10.29 10.02L10.29 10.02Q10.29 10.98 10.86 11.60Q11.44 12.22 12.39 12.22L12.39 12.22Q13.19 12.22 13.99 11.76L13.99 11.76L14.14 13.23Q13.76 13.43 13.25 13.54Q12.74 13.65 12.18 13.65L12.18 13.65ZM15.30 13.51L15.30 6.51L16.93 6.51L16.97 7.25Q17.28 6.90 17.76 6.64Q18.24 6.37 18.77 6.37L18.77 6.37Q18.94 6.37 19.08 6.40L19.08 6.40L18.96 8.11Q18.69 8.04 18.35 8.04L18.35 8.04Q17.92 8.04 17.56 8.24Q17.19 8.44 17.04 8.74L17.04 8.74L17.04 13.51L15.30 13.51ZM21.35 13.65Q20.48 13.65 19.90 13.08Q19.32 12.52 19.32 11.55L19.32 11.55Q19.32 10.64 19.98 10.09Q20.64 9.53 21.53 9.30Q22.43 9.07 23.25 9.04L23.25 9.04Q23.23 8.43 22.94 8.16Q22.65 7.90 21.99 7.90L21.99 7.90Q21.53 7.90 21.09 8.02Q20.65 8.15 20.08 8.43L20.08 8.43L19.92 7.01Q21.20 6.40 22.47 6.40L22.47 6.40Q23.70 6.40 24.35 7.07Q25.00 7.74 25.00 9.21L25.00 9.21L25.00 11.10Q25.00 11.63 25.05 11.87Q25.10 12.10 25.22 12.16Q25.34 12.22 25.62 12.22L25.62 12.22L25.84 12.22L25.69 13.65L25.06 13.65Q24.49 13.65 24.09 13.43Q23.70 13.22 23.49 12.84L23.49 12.84Q23.16 13.22 22.58 13.43Q21.99 13.65 21.35 13.65L21.35 13.65ZM22.08 12.32Q22.34 12.32 22.68 12.19Q23.02 12.05 23.27 11.82L23.27 11.82L23.27 10.22Q22.43 10.26 21.78 10.58Q21.14 10.91 21.14 11.48L21.14 11.48Q21.14 11.91 21.36 12.12Q21.59 12.32 22.08 12.32L22.08 12.32ZM30.46 6.40Q31.46 6.40 32.17 6.89Q32.89 7.38 33.25 8.20Q33.61 9.03 33.61 10.02L33.61 10.02Q33.61 11.02 33.25 11.84Q32.89 12.67 32.17 13.16Q31.46 13.65 30.46 13.65L30.46 13.65Q29.83 13.65 29.39 13.52Q28.95 13.38 28.55 13.09L28.55 13.09L28.55 16.90L26.81 16.90L26.81 6.51L28.21 6.51L28.39 7.15Q28.84 6.78 29.33 6.59Q29.82 6.40 30.46 6.40L30.46 6.40ZM30.20 12.22Q30.97 12.22 31.40 11.62Q31.84 11.02 31.84 10.02L31.84 10.02Q31.84 9.03 31.40 8.43Q30.97 7.83 30.20 7.83L30.20 7.83Q29.33 7.83 28.90 8.41Q28.46 9.00 28.46 10.02L28.46 10.02Q28.46 11.05 28.90 11.63Q29.33 12.22 30.20 12.22L30.20 12.22ZM38.19 13.65Q36.97 13.65 36.11 13.15Q35.25 12.66 34.83 11.82Q34.40 10.99 34.40 9.97L34.40 9.97Q34.40 8.99 34.80 8.18Q35.21 7.36 35.98 6.88Q36.75 6.40 37.81 6.40L37.81 6.40Q38.79 6.40 39.47 6.80Q40.15 7.21 40.50 7.90Q40.84 8.58 40.84 9.44L40.84 9.44Q40.84 9.86 40.73 10.39L40.73 10.39L36.20 10.39Q36.34 11.31 36.93 11.77Q37.52 12.22 38.35 12.22L38.35 12.22Q39.48 12.22 40.45 11.65L40.45 11.65L40.53 13.12Q40.08 13.36 39.49 13.50Q38.89 13.65 38.19 13.65L38.19 13.65ZM36.25 9.21L39.07 9.21Q39.07 8.67 38.77 8.25Q38.46 7.83 37.81 7.83L37.81 7.83Q37.17 7.83 36.78 8.20Q36.39 8.58 36.25 9.21L36.25 9.21ZM42.03 5.45L42.03 3.71L43.76 3.71L43.76 5.45L42.03 5.45ZM42.03 13.51L42.03 6.51L43.76 6.51L43.76 13.51L42.03 13.51ZM47.67 13.65Q46.75 13.65 46.27 13.11Q45.79 12.57 45.79 11.82L45.79 11.82L45.79 7.94L44.80 7.94L44.95 6.51L45.79 6.51L45.79 4.97L47.53 4.79L47.53 6.51L49.07 6.51L49.07 7.94L47.53 7.94L47.53 11.10Q47.53 11.66 47.59 11.88Q47.66 12.10 47.86 12.16Q48.06 12.22 48.59 12.22L48.59 12.22L49.07 12.22L48.92 13.65L47.67 13.65Z"></path></g><!----><g data-v-423bf9ae="" id="2d98d1f0-bb3f-4a17-a35f-c831e7cfeeae" transform="matrix(1.0219088236490885,0,0,1.0219088236490885,55.45521529932048,-3.0784924163027085)" stroke="none" fill="white"><switch><g><path d="M30.052 24.285c1.833 1.277 3.394 3.444 4.121 5.418.095-.116.177-.24.285-.349a4.44 4.44 0 011.135-.802c-.169-1.856-1.868-4.882-4.112-6.448-.834-.581-1.94-1.087-3.139-.964-.6.286-1.131.627-1.508 1.006a4.91 4.91 0 00-.756 1.017c1.279-.18 2.633.187 3.974 1.122z"></path><path d="M97.587 58.779L62.849 24.045c-1.238-1.237-3.68-2.323-5.427-2.412l-25.428-1.308a6.58 6.58 0 00-1.524.123c.526.195 1.056.47 1.582.837 2.311 1.611 4.186 4.633 4.506 6.901 1.476-.363 3.095.016 4.248 1.168a4.489 4.489 0 11-7.335 1.488c-.46-1.848-2.016-4.359-3.99-5.737-1.016-.708-2.438-1.304-3.938-.777-.364.977-.573 2.055-.525 2.977l1.339 25.393c.091 1.748 1.18 4.189 2.416 5.426L63.512 92.86a3.188 3.188 0 004.498.002L97.588 63.28a3.196 3.196 0 00-.001-4.501zM53.944 40.594c5.173-5.173 8.768-5.203 12.245-1.725 3.508 3.507 3.508 7.132-1.665 12.304-5.144 5.145-8.798 5.174-12.306 1.666-3.477-3.477-3.417-7.1 1.726-12.245zm18.705 34.898c-5.173 5.172-8.769 5.201-12.275 1.695-3.508-3.508-3.449-7.074 1.724-12.248 5.145-5.143 8.769-5.26 12.276-1.752 3.507 3.506 3.42 7.161-1.725 12.305zm-23.469-9.91l-3.039-3.037 31.303-12.014 3.068 3.068L49.18 65.582z"></path><path d="M64.933 67.949c-3.331 3.334-3.739 5.088-2.074 6.754 1.694 1.695 3.479 1.314 6.811-2.018 3.36-3.359 3.74-5.145 2.045-6.838-1.666-1.667-3.421-1.257-6.782 2.102zM61.484 48.31c3.362-3.361 3.799-5.085 2.105-6.78-1.695-1.695-3.42-1.258-6.781 2.104-3.332 3.332-3.771 5.056-2.075 6.753 1.696 1.693 3.42 1.256 6.751-2.077zM27.229 20.601c-.453-.909-.228-2.198.311-4.28.813-3.151 1.928-7.467-3.01-10.552C19.488 2.618 12.967 3.49 9.024 7.845c-4.428 4.891-5.653 14.652 4.185 27.383 11.637 15.059 5.479 22.973-.477 30.624-2.459 3.16-4.781 6.145-5.697 9.502-1.673 6.133-.617 12.123 2.826 16.023 1.896 2.148 5.262 4.479 10.936 4.479 1.035 0 2.149-.077 3.345-.248 6.388-.913 10.853-4.971 12.251-11.131 1.25-5.514-.399-11.4-3.838-13.691a1 1 0 00-1.11 1.664c2.74 1.826 4.056 6.916 2.996 11.586-1.203 5.307-5.061 8.803-10.583 9.592-5.427.773-9.749-.461-12.497-3.574-2.951-3.342-3.869-8.773-2.396-14.174.811-2.969 3.014-5.801 5.346-8.799 5.822-7.479 13.066-16.787.48-33.075C5.708 22.25 6.623 13.478 10.507 9.187c3.29-3.636 8.741-4.361 12.964-1.722 3.693 2.309 2.935 5.246 2.131 8.356-.539 2.09-1.133 4.389.073 6.144.145-.192.295-.369.452-.525a5.657 5.657 0 011.102-.839z"></path></g></switch></g><!----><g data-v-423bf9ae="" id="87a9e036-c8bc-4ec4-a32f-7ae8f28d2c9b" fill="white" transform="matrix(0.4989071977249228,0,0,0.4989071977249228,27.88110245269891,208.19433131995513)"><path d="M8.22 3.92L8.02 3.92L0.73 3.92L0.52 3.92L0.42 3.92L0.42 5.96L0.77 5.96C0.97 5.96 1.05 5.85 1.06 5.63C1.06 5.53 1.09 5.17 1.12 4.52L4.02 4.52L4.02 13.26C3.85 13.26 3.71 13.27 3.57 13.27C3.43 13.27 3.32 13.29 3.25 13.29L3.12 13.29C2.94 13.30 2.84 13.38 2.84 13.54L2.84 13.82L4.02 13.82L4.73 13.82L5.92 13.82L5.92 13.54C5.92 13.38 5.82 13.30 5.64 13.29L5.50 13.29C5.43 13.29 5.33 13.27 5.19 13.27C5.05 13.27 4.90 13.26 4.73 13.26L4.73 4.52L7.62 4.52C7.66 5.24 7.67 5.60 7.67 5.63C7.69 5.85 7.78 5.96 7.98 5.96L8.32 5.96L8.32 3.92ZM24.42 13.29L24.32 13.29L24.14 13.29C24.05 13.29 23.97 13.27 23.88 13.27L20.92 9.53C20.83 9.42 20.72 9.32 20.61 9.25C21.04 9.21 21.43 9.11 21.78 8.96C22.13 8.81 22.41 8.61 22.67 8.37C22.90 8.13 23.10 7.85 23.23 7.55C23.35 7.24 23.42 6.89 23.42 6.51C23.42 5.66 23.14 5.03 22.58 4.58C22.02 4.14 21.17 3.92 20.02 3.92L17.61 3.92L16.44 3.92L16.44 4.19C16.44 4.34 16.52 4.42 16.70 4.44L16.84 4.44C16.91 4.44 17.01 4.45 17.15 4.45C17.29 4.45 17.44 4.47 17.61 4.47L17.61 13.26C17.44 13.26 17.29 13.27 17.15 13.27C17.01 13.27 16.91 13.29 16.84 13.29L16.70 13.29C16.52 13.30 16.42 13.38 16.42 13.54L16.42 13.82L17.61 13.82L18.33 13.82L19.50 13.82L19.50 13.54C19.50 13.38 19.40 13.30 19.22 13.29L19.08 13.29C19.01 13.29 18.91 13.27 18.77 13.27C18.63 13.27 18.49 13.26 18.33 13.26L18.33 9.34L19.50 9.34C19.70 9.34 19.84 9.35 19.92 9.39C20.01 9.44 20.09 9.52 20.17 9.62L23.35 13.64C23.41 13.71 23.45 13.75 23.51 13.78C23.56 13.80 23.63 13.82 23.70 13.82L23.77 13.82L24.32 13.82L24.68 13.82L24.68 13.54C24.68 13.38 24.60 13.30 24.42 13.29ZM19.92 8.81L18.33 8.81L18.33 4.48L20.02 4.48C20.90 4.48 21.57 4.66 22.04 5.00C22.50 5.33 22.72 5.87 22.72 6.57C22.72 6.92 22.67 7.21 22.54 7.49C22.41 7.77 22.22 7.99 21.98 8.19C21.74 8.39 21.45 8.55 21.10 8.65C20.75 8.75 20.36 8.81 19.92 8.81ZM42.18 13.22L41.72 13.17L37.94 3.91L37.23 3.91L33.43 13.17L32.98 13.22C32.80 13.23 32.72 13.33 32.72 13.50L32.72 13.82L33.17 13.82L33.46 13.82L33.71 13.82L33.81 13.82L35.13 13.82L35.13 13.50C35.13 13.31 35.01 13.23 34.80 13.22C34.79 13.22 34.76 13.20 34.72 13.20C34.68 13.20 34.62 13.19 34.52 13.19C34.43 13.19 34.30 13.19 34.16 13.17L35.14 10.75L35.21 10.57L39.94 10.57L40.01 10.75L40.99 13.17C40.85 13.19 40.74 13.19 40.64 13.19C40.54 13.19 40.47 13.20 40.43 13.20C40.39 13.20 40.36 13.22 40.35 13.22C40.14 13.23 40.03 13.31 40.03 13.50L40.03 13.82L41.34 13.82L41.44 13.82L41.71 13.82L41.99 13.82L42.45 13.82L42.45 13.50C42.45 13.33 42.36 13.23 42.18 13.22ZM37.38 5.22C37.41 5.14 37.45 5.04 37.48 4.94C37.51 4.84 37.55 4.75 37.58 4.63C37.60 4.75 37.65 4.84 37.67 4.94C37.70 5.04 37.74 5.12 37.77 5.21L39.73 10.04L35.43 10.04ZM58.41 12.21C58.38 12.18 58.34 12.15 58.30 12.15C58.27 12.15 58.25 12.15 58.23 12.17C58.21 12.18 58.18 12.21 58.16 12.22C57.96 12.40 57.75 12.56 57.55 12.70C57.36 12.84 57.15 12.94 56.91 13.03C56.67 13.13 56.42 13.20 56.14 13.24C55.86 13.29 55.55 13.31 55.20 13.31C54.64 13.31 54.10 13.22 53.62 13.01C53.13 12.81 52.72 12.52 52.37 12.14C52.02 11.76 51.73 11.28 51.53 10.74C51.34 10.19 51.24 9.56 51.24 8.86C51.24 8.18 51.34 7.56 51.53 7.01C51.74 6.47 52.02 6.01 52.39 5.61C52.75 5.24 53.19 4.94 53.69 4.73C54.19 4.52 54.74 4.42 55.34 4.42C56.24 4.42 57.06 4.56 57.79 4.89C57.83 5.78 57.88 6.30 57.88 6.41C57.89 6.64 57.97 6.75 58.17 6.75L58.51 6.75L58.51 4.51C57.33 4.03 56.27 3.81 55.34 3.81C54.63 3.81 53.98 3.92 53.38 4.17C52.79 4.42 52.26 4.76 51.84 5.21C51.41 5.66 51.09 6.19 50.85 6.80C50.61 7.42 50.50 8.11 50.50 8.86C50.50 9.63 50.62 10.32 50.85 10.95C51.07 11.58 51.39 12.10 51.80 12.54C52.21 12.99 52.70 13.33 53.27 13.57C53.84 13.80 54.46 13.93 55.15 13.93C55.55 13.93 55.93 13.90 56.28 13.83C56.62 13.76 56.94 13.66 57.23 13.54C57.51 13.41 57.78 13.26 58.02 13.09C58.25 12.91 58.48 12.73 58.69 12.50ZM75.19 13.29L75.11 13.29L74.93 13.29C74.84 13.29 74.75 13.27 74.65 13.27L70.62 9.06C70.53 8.96 70.46 8.89 70.38 8.83C70.29 8.78 70.21 8.74 70.11 8.71C70.20 8.68 70.27 8.64 70.34 8.58C70.41 8.53 70.49 8.46 70.57 8.36L74.37 4.45L74.63 4.45C74.72 4.45 74.77 4.44 74.82 4.44L74.90 4.44C75.08 4.42 75.18 4.34 75.18 4.19L75.18 3.91L74.20 3.91L74.07 3.91L72.27 3.91L72.27 4.19C72.27 4.34 72.37 4.42 72.55 4.44L72.72 4.44C72.81 4.44 72.94 4.45 73.11 4.45L73.56 4.45L69.89 8.22C69.83 8.27 69.78 8.33 69.73 8.36C69.69 8.39 69.64 8.40 69.58 8.43C69.52 8.44 69.48 8.47 69.41 8.47C69.34 8.48 69.26 8.48 69.17 8.48L68.59 8.48L68.59 4.45C68.75 4.45 68.91 4.44 69.05 4.44C69.19 4.44 69.29 4.42 69.36 4.42L69.50 4.42C69.68 4.41 69.76 4.33 69.76 4.17L69.76 3.91L68.59 3.91L67.87 3.91L66.70 3.91L66.70 4.17C66.70 4.33 66.79 4.41 66.98 4.42L67.10 4.42C67.17 4.42 67.28 4.44 67.42 4.44C67.56 4.44 67.70 4.45 67.87 4.45L67.87 13.26C67.70 13.26 67.56 13.27 67.42 13.27C67.28 13.27 67.17 13.29 67.10 13.29L66.98 13.29C66.79 13.30 66.70 13.38 66.70 13.54L66.70 13.82L67.87 13.82L68.59 13.82L69.76 13.82L69.76 13.54C69.76 13.38 69.68 13.30 69.50 13.29L69.36 13.29C69.29 13.29 69.19 13.27 69.05 13.27C68.91 13.27 68.75 13.26 68.59 13.26L68.59 9.04L69.23 9.04C69.34 9.04 69.44 9.04 69.51 9.06C69.58 9.07 69.64 9.09 69.69 9.11C69.75 9.14 69.80 9.17 69.85 9.21C69.89 9.25 69.93 9.28 69.99 9.34L73.84 13.27C73.70 13.27 73.53 13.29 73.36 13.29L72.95 13.29L72.77 13.29C72.59 13.30 72.49 13.38 72.49 13.54L72.49 13.82L74.37 13.82L74.42 13.82L74.59 13.82L75.18 13.82L75.47 13.82L75.47 13.54C75.47 13.38 75.38 13.30 75.19 13.29ZM84.06 13.23C84.06 13.41 84.10 13.57 84.21 13.68C84.32 13.79 84.48 13.85 84.64 13.85L84.76 13.85C84.78 13.85 84.81 13.83 84.84 13.82C84.83 13.99 84.78 14.14 84.73 14.29C84.67 14.45 84.60 14.57 84.53 14.70C84.46 14.83 84.39 14.94 84.32 15.02C84.25 15.11 84.18 15.19 84.14 15.23C84.13 15.25 84.11 15.27 84.10 15.30C84.08 15.33 84.07 15.33 84.07 15.36C84.07 15.40 84.08 15.44 84.13 15.48L84.24 15.58C84.39 15.43 84.55 15.29 84.67 15.11C84.80 14.92 84.91 14.74 85.01 14.55C85.11 14.35 85.16 14.15 85.22 13.96C85.27 13.76 85.29 13.58 85.29 13.38C85.29 13.16 85.23 12.98 85.12 12.84C85.01 12.70 84.85 12.63 84.66 12.63C84.48 12.63 84.34 12.70 84.22 12.81C84.11 12.92 84.06 13.06 84.06 13.23ZM101.26 12.21C101.23 12.18 101.19 12.15 101.15 12.15C101.12 12.15 101.11 12.15 101.08 12.17C101.07 12.18 101.04 12.21 101.01 12.22C100.81 12.40 100.60 12.56 100.41 12.70C100.21 12.84 100.00 12.94 99.76 13.03C99.53 13.13 99.27 13.20 98.99 13.24C98.71 13.29 98.41 13.31 98.06 13.31C97.50 13.31 96.95 13.22 96.47 13.01C95.98 12.81 95.58 12.52 95.23 12.14C94.88 11.76 94.58 11.28 94.39 10.74C94.19 10.19 94.09 9.56 94.09 8.86C94.09 8.18 94.19 7.56 94.39 7.01C94.60 6.47 94.88 6.01 95.24 5.61C95.61 5.24 96.04 4.94 96.54 4.73C97.05 4.52 97.59 4.42 98.20 4.42C99.09 4.42 99.92 4.56 100.65 4.89C100.69 5.78 100.73 6.30 100.73 6.41C100.74 6.64 100.83 6.75 101.02 6.75L101.36 6.75L101.36 4.51C100.18 4.03 99.12 3.81 98.20 3.81C97.48 3.81 96.84 3.92 96.24 4.17C95.65 4.42 95.12 4.76 94.70 5.21C94.26 5.66 93.94 6.19 93.70 6.80C93.46 7.42 93.35 8.11 93.35 8.86C93.35 9.63 93.48 10.32 93.70 10.95C93.93 11.58 94.25 12.10 94.65 12.54C95.06 12.99 95.55 13.33 96.12 13.57C96.70 13.80 97.31 13.93 98 13.93C98.41 13.93 98.78 13.90 99.13 13.83C99.47 13.76 99.79 13.66 100.09 13.54C100.37 13.41 100.63 13.26 100.87 13.09C101.11 12.91 101.33 12.73 101.54 12.50ZM118.82 8.86C118.82 8.11 118.69 7.41 118.47 6.79C118.24 6.17 117.92 5.64 117.50 5.19C117.08 4.75 116.59 4.40 116.02 4.16C115.44 3.92 114.79 3.79 114.09 3.79C113.39 3.79 112.76 3.92 112.18 4.16C111.61 4.40 111.10 4.75 110.68 5.19C110.26 5.64 109.94 6.17 109.72 6.79C109.49 7.41 109.37 8.11 109.37 8.86C109.37 9.63 109.49 10.33 109.72 10.95C109.94 11.56 110.26 12.10 110.68 12.54C111.10 12.99 111.61 13.33 112.18 13.57C112.76 13.80 113.39 13.93 114.09 13.93C114.79 13.93 115.44 13.80 116.02 13.57C116.59 13.33 117.08 12.99 117.50 12.54C117.92 12.10 118.24 11.56 118.47 10.95C118.69 10.33 118.82 9.63 118.82 8.86ZM118.06 8.86C118.06 9.56 117.98 10.18 117.78 10.72C117.59 11.27 117.32 11.75 116.97 12.12C116.62 12.50 116.20 12.81 115.71 13.01C115.22 13.20 114.69 13.30 114.09 13.30C113.50 13.30 112.97 13.20 112.48 13.01C111.99 12.81 111.57 12.50 111.22 12.12C110.87 11.75 110.59 11.27 110.39 10.72C110.19 10.18 110.11 9.56 110.11 8.86C110.11 8.18 110.19 7.55 110.39 7.00C110.59 6.45 110.87 5.98 111.22 5.60C111.57 5.22 111.99 4.91 112.48 4.72C112.97 4.52 113.50 4.41 114.09 4.41C114.69 4.41 115.22 4.52 115.71 4.72C116.20 4.91 116.62 5.22 116.97 5.60C117.32 5.98 117.59 6.45 117.78 7.00C117.98 7.55 118.06 8.18 118.06 8.86ZM138.68 4.44C138.87 4.42 138.96 4.34 138.96 4.19L138.96 3.92L137.79 3.92L137.28 3.92C137.21 3.92 137.17 3.92 137.13 3.93C137.09 3.95 137.06 3.99 137.02 4.05L133.13 10.92C133.08 10.99 133.06 11.06 133.03 11.13C133 11.20 132.97 11.28 132.94 11.35C132.89 11.20 132.83 11.06 132.76 10.93L128.76 4.05C128.72 3.99 128.69 3.95 128.65 3.93C128.60 3.92 128.56 3.92 128.49 3.92L128.00 3.92L126.81 3.92L126.81 4.19C126.81 4.34 126.91 4.42 127.09 4.44L127.23 4.44C127.30 4.44 127.40 4.45 127.54 4.45C127.68 4.45 127.83 4.47 128.00 4.47L128.00 13.26C127.83 13.26 127.68 13.27 127.54 13.27C127.40 13.27 127.30 13.29 127.23 13.29L127.09 13.29C126.91 13.30 126.81 13.38 126.81 13.54L126.81 13.82L128.00 13.82L128.62 13.82L129.84 13.82L129.84 13.54C129.84 13.38 129.74 13.30 129.56 13.29L129.42 13.29C129.35 13.29 129.23 13.27 129.09 13.27C128.95 13.27 128.79 13.26 128.62 13.26L128.62 5.38C128.62 5.25 128.62 5.12 128.60 4.98L132.61 11.91C132.68 12.04 132.78 12.10 132.89 12.10L133 12.10C133.13 12.10 133.21 12.04 133.28 11.91L137.17 4.98C137.16 5.12 137.16 5.25 137.16 5.38L137.16 13.26C136.99 13.26 136.82 13.27 136.68 13.27C136.54 13.27 136.43 13.29 136.36 13.29L136.22 13.29C136.04 13.30 135.94 13.38 135.94 13.54L135.94 13.82L137.16 13.82L137.79 13.82L138.96 13.82L138.96 13.54C138.96 13.38 138.87 13.30 138.68 13.29L138.56 13.29C138.49 13.29 138.38 13.27 138.24 13.27C138.10 13.27 137.96 13.26 137.79 13.26L137.79 4.47C137.96 4.47 138.10 4.45 138.24 4.45C138.38 4.45 138.49 4.44 138.56 4.44ZM153.54 4.68C152.95 4.17 152.07 3.92 150.91 3.92L148.50 3.92L147.31 3.92L147.31 4.19C147.31 4.34 147.41 4.42 147.59 4.44L147.73 4.44C147.80 4.44 147.90 4.45 148.04 4.45C148.18 4.45 148.33 4.47 148.50 4.47L148.50 13.26C148.33 13.26 148.18 13.27 148.04 13.27C147.90 13.27 147.80 13.29 147.73 13.29L147.59 13.29C147.41 13.30 147.31 13.38 147.31 13.54L147.31 13.82L148.50 13.82L149.21 13.82L150.39 13.82L150.39 13.54C150.39 13.38 150.29 13.30 150.11 13.29L149.98 13.29C149.91 13.29 149.80 13.27 149.66 13.27C149.52 13.27 149.38 13.26 149.21 13.26L149.21 9.83L150.91 9.83C151.45 9.83 151.94 9.74 152.38 9.60C152.81 9.45 153.17 9.25 153.48 8.99C153.79 8.72 154.03 8.41 154.18 8.05C154.35 7.69 154.42 7.29 154.42 6.86C154.42 5.92 154.13 5.18 153.54 4.68ZM153.51 7.81C153.38 8.11 153.20 8.36 152.96 8.57C152.73 8.78 152.43 8.95 152.08 9.07C151.73 9.20 151.34 9.25 150.91 9.25L149.21 9.25L149.21 4.48L150.91 4.48C151.83 4.48 152.53 4.69 153.01 5.10C153.47 5.50 153.71 6.09 153.71 6.85C153.71 7.20 153.64 7.52 153.51 7.81ZM171.08 13.22L170.62 13.17L166.84 3.91L166.12 3.91L162.33 13.17L161.88 13.22C161.70 13.23 161.62 13.33 161.62 13.50L161.62 13.82L162.06 13.82L162.36 13.82L162.61 13.82L162.71 13.82L164.02 13.82L164.02 13.50C164.02 13.31 163.91 13.23 163.70 13.22C163.69 13.22 163.66 13.20 163.62 13.20C163.58 13.20 163.52 13.19 163.42 13.19C163.32 13.19 163.20 13.19 163.06 13.17L164.04 10.75L164.11 10.57L168.84 10.57L168.91 10.75L169.89 13.17C169.75 13.19 169.64 13.19 169.54 13.19C169.44 13.19 169.37 13.20 169.33 13.20C169.29 13.20 169.26 13.22 169.25 13.22C169.04 13.23 168.92 13.31 168.92 13.50L168.92 13.82L170.24 13.82L170.34 13.82L170.60 13.82L170.88 13.82L171.35 13.82L171.35 13.50C171.35 13.33 171.26 13.23 171.08 13.22ZM166.28 5.22C166.31 5.14 166.35 5.04 166.38 4.94C166.40 4.84 166.45 4.75 166.47 4.63C166.50 4.75 166.54 4.84 166.57 4.94C166.60 5.04 166.64 5.12 166.67 5.21L168.63 10.04L164.33 10.04ZM187.57 13.29L187.47 13.29L187.29 13.29C187.21 13.29 187.12 13.27 187.04 13.27L184.07 9.53C183.99 9.42 183.88 9.32 183.76 9.25C184.20 9.21 184.59 9.11 184.94 8.96C185.29 8.81 185.57 8.61 185.82 8.37C186.06 8.13 186.26 7.85 186.38 7.55C186.51 7.24 186.58 6.89 186.58 6.51C186.58 5.66 186.30 5.03 185.74 4.58C185.18 4.14 184.32 3.92 183.18 3.92L180.77 3.92L179.59 3.92L179.59 4.19C179.59 4.34 179.68 4.42 179.86 4.44L180.00 4.44C180.07 4.44 180.17 4.45 180.31 4.45C180.45 4.45 180.60 4.47 180.77 4.47L180.77 13.26C180.60 13.26 180.45 13.27 180.31 13.27C180.17 13.27 180.07 13.29 180.00 13.29L179.86 13.29C179.68 13.30 179.58 13.38 179.58 13.54L179.58 13.82L180.77 13.82L181.48 13.82L182.66 13.82L182.66 13.54C182.66 13.38 182.56 13.30 182.38 13.29L182.24 13.29C182.17 13.29 182.07 13.27 181.93 13.27C181.79 13.27 181.65 13.26 181.48 13.26L181.48 9.34L182.66 9.34C182.85 9.34 182.99 9.35 183.08 9.39C183.16 9.44 183.25 9.52 183.33 9.62L186.51 13.64C186.56 13.71 186.61 13.75 186.66 13.78C186.72 13.80 186.79 13.82 186.86 13.82L186.93 13.82L187.47 13.82L187.84 13.82L187.84 13.54C187.84 13.38 187.75 13.30 187.57 13.29ZM183.08 8.81L181.48 8.81L181.48 4.48L183.18 4.48C184.06 4.48 184.73 4.66 185.19 5.00C185.65 5.33 185.88 5.87 185.88 6.57C185.88 6.92 185.82 7.21 185.70 7.49C185.57 7.77 185.37 7.99 185.14 8.19C184.90 8.39 184.60 8.55 184.25 8.65C183.90 8.75 183.51 8.81 183.08 8.81ZM197.23 3.92L196.04 3.92L196.04 4.19C196.04 4.34 196.14 4.42 196.32 4.44L196.46 4.44C196.53 4.44 196.63 4.45 196.77 4.45C196.91 4.45 197.06 4.47 197.23 4.47L197.23 13.26C197.06 13.26 196.91 13.27 196.77 13.27C196.63 13.27 196.53 13.29 196.46 13.29L196.32 13.29C196.14 13.30 196.06 13.38 196.06 13.54L196.06 13.82L197.23 13.82L203.17 13.82L203.17 13.22L203.17 11.76L202.82 11.76C202.62 11.76 202.54 11.89 202.52 12.11C202.52 12.14 202.51 12.19 202.51 12.29C202.51 12.39 202.51 12.53 202.50 12.74C202.48 12.95 202.47 13.09 202.47 13.22L197.95 13.22L197.95 9.09L201.89 9.09L201.89 8.51L197.95 8.51L197.95 4.51L202.47 4.51C202.50 5.12 202.52 5.50 202.52 5.63C202.54 5.85 202.62 5.96 202.82 5.96L203.17 5.96L203.17 4.51L203.17 3.92ZM212.06 13.23C212.06 13.41 212.10 13.57 212.21 13.68C212.32 13.79 212.48 13.85 212.65 13.85L212.76 13.85C212.79 13.85 212.81 13.83 212.84 13.82C212.83 13.99 212.79 14.14 212.73 14.29C212.67 14.45 212.60 14.57 212.53 14.70C212.46 14.83 212.39 14.94 212.32 15.02C212.25 15.11 212.18 15.19 212.14 15.23C212.13 15.25 212.11 15.27 212.10 15.30C212.09 15.33 212.07 15.33 212.07 15.36C212.07 15.40 212.09 15.44 212.13 15.48L212.24 15.58C212.39 15.43 212.55 15.29 212.67 15.11C212.80 14.92 212.91 14.74 213.01 14.55C213.11 14.35 213.16 14.15 213.22 13.96C213.28 13.76 213.29 13.58 213.29 13.38C213.29 13.16 213.23 12.98 213.12 12.84C213.01 12.70 212.86 12.63 212.66 12.63C212.48 12.63 212.34 12.70 212.23 12.81C212.11 12.92 212.06 13.06 212.06 13.23ZM227.67 9.91C227.53 9.65 227.33 9.39 227.09 9.21C226.86 9.03 226.60 8.88 226.31 8.75C226.02 8.62 225.69 8.51 225.39 8.41C225.08 8.32 224.77 8.20 224.48 8.11C224.18 7.99 223.92 7.87 223.68 7.71C223.44 7.56 223.26 7.38 223.12 7.15C222.98 6.93 222.89 6.65 222.89 6.31C222.89 6.06 222.95 5.82 223.05 5.59C223.15 5.35 223.29 5.15 223.47 4.97C223.65 4.79 223.87 4.65 224.15 4.55C224.43 4.45 224.74 4.40 225.11 4.40C225.78 4.40 226.39 4.51 226.95 4.75C227.00 5.54 227.02 5.99 227.02 6.06C227.04 6.29 227.12 6.41 227.32 6.41L227.65 6.41L227.65 4.38C226.77 4.00 225.93 3.81 225.11 3.81C224.64 3.81 224.24 3.88 223.87 4.02C223.51 4.16 223.22 4.34 222.98 4.58C222.74 4.82 222.54 5.08 222.42 5.39C222.29 5.70 222.24 6.02 222.24 6.36C222.24 6.78 222.31 7.14 222.45 7.42C222.59 7.70 222.78 7.92 223.02 8.12C223.26 8.32 223.51 8.46 223.80 8.58C224.10 8.71 224.42 8.82 224.73 8.92C225.04 9.02 225.33 9.11 225.64 9.21C225.93 9.31 226.20 9.45 226.44 9.60C226.67 9.76 226.86 9.94 227.00 10.16C227.14 10.39 227.21 10.68 227.21 11.03C227.21 11.35 227.15 11.66 227.04 11.94C226.93 12.22 226.77 12.46 226.56 12.67C226.35 12.88 226.09 13.05 225.78 13.16C225.47 13.29 225.12 13.33 224.73 13.33C223.94 13.33 223.29 13.20 222.75 12.95C222.74 12.75 222.74 12.54 222.73 12.32C222.71 12.10 222.71 11.91 222.70 11.76C222.68 11.61 222.68 11.52 222.68 11.51C222.67 11.28 222.57 11.17 222.38 11.17L222.04 11.17L222.04 13.02L222.04 13.20L222.04 13.38C222.89 13.75 223.78 13.93 224.70 13.93C225.20 13.93 225.65 13.85 226.04 13.69C226.44 13.54 226.77 13.31 227.04 13.05C227.30 12.78 227.53 12.46 227.67 12.10C227.81 11.73 227.88 11.34 227.88 10.92C227.88 10.51 227.81 10.18 227.67 9.91ZM244.45 3.92L243.74 3.92L242.38 3.92L242.38 4.19C242.38 4.34 242.48 4.42 242.66 4.44L242.83 4.44C242.93 4.44 243.07 4.45 243.24 4.45C243.40 4.45 243.57 4.47 243.74 4.47L243.74 10.04C243.74 10.50 243.67 10.92 243.53 11.33C243.39 11.73 243.19 12.08 242.93 12.38C242.66 12.67 242.35 12.89 241.98 13.06C241.60 13.23 241.18 13.31 240.70 13.31C240.23 13.31 239.79 13.23 239.41 13.06C239.04 12.89 238.71 12.66 238.46 12.36C238.20 12.07 238.01 11.72 237.87 11.33C237.73 10.93 237.66 10.50 237.66 10.04L237.66 4.47C237.83 4.47 238.00 4.45 238.17 4.45C238.34 4.45 238.48 4.44 238.57 4.44L238.74 4.44C238.92 4.42 239.02 4.34 239.02 4.19L239.02 3.92L237.66 3.92L236.95 3.92L235.77 3.92L235.77 4.19C235.77 4.34 235.86 4.42 236.04 4.44L236.18 4.44C236.25 4.44 236.35 4.45 236.49 4.45C236.63 4.45 236.78 4.47 236.95 4.47L236.95 10.04C236.95 10.58 237.03 11.09 237.20 11.56C237.37 12.04 237.62 12.46 237.94 12.81C238.27 13.16 238.67 13.44 239.13 13.64C239.60 13.83 240.13 13.93 240.70 13.93C241.28 13.93 241.79 13.83 242.26 13.64C242.72 13.44 243.12 13.16 243.45 12.81C243.77 12.46 244.02 12.04 244.19 11.56C244.36 11.09 244.45 10.58 244.45 10.04L244.45 4.47C244.62 4.47 244.76 4.45 244.90 4.45C245.04 4.45 245.15 4.44 245.22 4.44L245.35 4.44C245.53 4.42 245.63 4.34 245.63 4.19L245.63 3.92ZM261.38 12.21C261.35 12.18 261.31 12.15 261.27 12.15C261.24 12.15 261.23 12.15 261.20 12.17C261.18 12.18 261.16 12.21 261.13 12.22C260.93 12.40 260.72 12.56 260.53 12.70C260.33 12.84 260.12 12.94 259.88 13.03C259.64 13.13 259.39 13.20 259.11 13.24C258.83 13.29 258.52 13.31 258.17 13.31C257.61 13.31 257.07 13.22 256.59 13.01C256.10 12.81 255.70 12.52 255.35 12.14C255.00 11.76 254.70 11.28 254.51 10.74C254.31 10.19 254.21 9.56 254.21 8.86C254.21 8.18 254.31 7.56 254.51 7.01C254.72 6.47 255.00 6.01 255.36 5.61C255.72 5.24 256.16 4.94 256.66 4.73C257.17 4.52 257.71 4.42 258.31 4.42C259.21 4.42 260.04 4.56 260.76 4.89C260.81 5.78 260.85 6.30 260.85 6.41C260.86 6.64 260.95 6.75 261.14 6.75L261.48 6.75L261.48 4.51C260.30 4.03 259.24 3.81 258.31 3.81C257.60 3.81 256.96 3.92 256.35 4.17C255.77 4.42 255.23 4.76 254.81 5.21C254.38 5.66 254.06 6.19 253.82 6.80C253.58 7.42 253.47 8.11 253.47 8.86C253.47 9.63 253.60 10.32 253.82 10.95C254.04 11.58 254.37 12.10 254.77 12.54C255.18 12.99 255.67 13.33 256.24 13.57C256.82 13.80 257.43 13.93 258.12 13.93C258.52 13.93 258.90 13.90 259.25 13.83C259.59 13.76 259.91 13.66 260.20 13.54C260.48 13.41 260.75 13.26 260.99 13.09C261.23 12.91 261.45 12.73 261.66 12.50ZM277.40 12.21C277.37 12.18 277.33 12.15 277.28 12.15C277.26 12.15 277.24 12.15 277.21 12.17C277.20 12.18 277.17 12.21 277.14 12.22C276.95 12.40 276.74 12.56 276.54 12.70C276.35 12.84 276.14 12.94 275.90 13.03C275.66 13.13 275.41 13.20 275.13 13.24C274.85 13.29 274.54 13.31 274.19 13.31C273.63 13.31 273.08 13.22 272.61 13.01C272.12 12.81 271.71 12.52 271.36 12.14C271.01 11.76 270.72 11.28 270.52 10.74C270.33 10.19 270.23 9.56 270.23 8.86C270.23 8.18 270.33 7.56 270.52 7.01C270.73 6.47 271.01 6.01 271.38 5.61C271.74 5.24 272.17 4.94 272.68 4.73C273.18 4.52 273.73 4.42 274.33 4.42C275.23 4.42 276.05 4.56 276.78 4.89C276.82 5.78 276.86 6.30 276.86 6.41C276.88 6.64 276.96 6.75 277.16 6.75L277.49 6.75L277.49 4.51C276.32 4.03 275.25 3.81 274.33 3.81C273.62 3.81 272.97 3.92 272.37 4.17C271.78 4.42 271.25 4.76 270.83 5.21C270.40 5.66 270.07 6.19 269.84 6.80C269.60 7.42 269.49 8.11 269.49 8.86C269.49 9.63 269.61 10.32 269.84 10.95C270.06 11.58 270.38 12.10 270.79 12.54C271.19 12.99 271.68 13.33 272.26 13.57C272.83 13.80 273.45 13.93 274.13 13.93C274.54 13.93 274.92 13.90 275.27 13.83C275.60 13.76 275.93 13.66 276.22 13.54C276.50 13.41 276.77 13.26 277.00 13.09C277.24 12.91 277.47 12.73 277.68 12.50ZM286.87 3.92L285.68 3.92L285.68 4.19C285.68 4.34 285.78 4.42 285.96 4.44L286.10 4.44C286.17 4.44 286.27 4.45 286.41 4.45C286.55 4.45 286.71 4.47 286.87 4.47L286.87 13.26C286.71 13.26 286.55 13.27 286.41 13.27C286.27 13.27 286.17 13.29 286.10 13.29L285.96 13.29C285.78 13.30 285.70 13.38 285.70 13.54L285.70 13.82L286.87 13.82L292.81 13.82L292.81 13.22L292.81 11.76L292.46 11.76C292.26 11.76 292.18 11.89 292.17 12.11C292.17 12.14 292.15 12.19 292.15 12.29C292.15 12.39 292.15 12.53 292.14 12.74C292.12 12.95 292.11 13.09 292.11 13.22L287.59 13.22L287.59 9.09L291.54 9.09L291.54 8.51L287.59 8.51L287.59 4.51L292.11 4.51C292.14 5.12 292.17 5.50 292.17 5.63C292.18 5.85 292.26 5.96 292.46 5.96L292.81 5.96L292.81 4.51L292.81 3.92ZM302.58 3.92L301.39 3.92L301.39 4.19C301.39 4.34 301.49 4.42 301.67 4.44L301.81 4.44C301.88 4.44 301.98 4.45 302.12 4.45C302.26 4.45 302.41 4.47 302.58 4.47L302.58 13.26C302.41 13.26 302.26 13.27 302.12 13.27C301.98 13.27 301.88 13.29 301.81 13.29L301.67 13.29C301.49 13.30 301.41 13.38 301.41 13.54L301.41 13.82L302.58 13.82L308.52 13.82L308.52 13.22L308.52 11.76L308.17 11.76C307.97 11.76 307.89 11.89 307.87 12.11C307.87 12.14 307.86 12.19 307.86 12.29C307.86 12.39 307.86 12.53 307.85 12.74C307.83 12.95 307.82 13.09 307.82 13.22L303.30 13.22L303.30 9.09L307.24 9.09L307.24 8.51L303.30 8.51L303.30 4.51L307.82 4.51C307.85 5.12 307.87 5.50 307.87 5.63C307.89 5.85 307.97 5.96 308.17 5.96L308.52 5.96L308.52 4.51L308.52 3.92ZM326.10 6.80C325.88 6.19 325.56 5.68 325.14 5.25C324.72 4.82 324.23 4.48 323.65 4.26C323.08 4.03 322.42 3.92 321.72 3.92L318.29 3.92L317.10 3.92L317.10 4.19C317.10 4.34 317.20 4.42 317.38 4.44L317.52 4.44C317.59 4.44 317.69 4.45 317.83 4.45C317.97 4.45 318.12 4.47 318.29 4.47L318.29 13.26C318.12 13.26 317.97 13.27 317.83 13.27C317.69 13.27 317.59 13.29 317.52 13.29L317.38 13.29C317.20 13.30 317.10 13.38 317.10 13.54L317.10 13.82L318.29 13.82L321.72 13.82C322.42 13.82 323.08 13.71 323.65 13.48C324.23 13.26 324.72 12.92 325.14 12.49C325.56 12.05 325.88 11.54 326.10 10.92C326.33 10.30 326.45 9.63 326.45 8.86C326.45 8.11 326.33 7.42 326.10 6.80ZM325.42 10.72C325.22 11.27 324.97 11.72 324.62 12.10C324.27 12.47 323.85 12.75 323.36 12.95C322.87 13.15 322.32 13.24 321.72 13.24L319.00 13.24L319.00 4.49L321.72 4.49C322.32 4.49 322.87 4.59 323.36 4.79C323.85 4.98 324.27 5.26 324.62 5.64C324.97 6.02 325.22 6.47 325.42 7.01C325.61 7.56 325.71 8.18 325.71 8.86C325.71 9.56 325.61 10.18 325.42 10.72Z"></path></g></svg>